<svg xmlns="http://www.w3.org/2000/svg" width="1920" height="994.87" viewBox="0 0 1920 994.87"><rect width="568.071" height="1007.035" transform="translate(683.449 558.243) rotate(-74.21)" fill="#3f3d56"/><circle cx="8.026" cy="8.026" r="8.026" transform="translate(846.747 26.452)" fill="#6c63ff"/><circle cx="8.026" cy="8.026" r="8.026" transform="translate(871.46 33.44)" fill="#6c63ff"/><circle cx="8.026" cy="8.026" r="8.026" transform="translate(896.172 40.429)" fill="#6c63ff"/><path d="M874.26,401.8a93.758,93.758,0,0,0-39.159.924,93.591,93.591,0,0,0,2.768-39.568,93.044,93.044,0,0,0-35,22.588,93.044,93.044,0,0,0-17.99-37.573,93.6,93.6,0,0,0-18.363,35.158,93.757,93.757,0,0,0-32.875-21.294s-5.845,29.725,8.226,54.116c12.524,21.709,36.586,31.868,41.73,33.841l.12.145.065-.073c.522.2.814.3.814.3s.111-.571.263-1.59c.093-.114.186-.23.288-.359.02.163.039.31.058.456-.4.948-.609,1.492-.609,1.492s.3.067.85.172l.017.1.178-.06c5.416,1.013,31.235,4.959,53.272-6.976C863.673,430.188,874.26,401.8,874.26,401.8Z" transform="translate(478.051 -43.33)" fill="#6c63ff"/><circle cx="20.866" cy="20.866" r="20.866" transform="translate(1283.42 240.81)" fill="#6c63ff"/><rect width="651.677" height="14.178" transform="translate(939.212 355.268) rotate(15.79)" fill="#6c63ff"/><rect width="112.358" height="112.358" transform="translate(978.687 439.825) rotate(15.79)" fill="#6c63ff"/><rect width="112.358" height="112.358" transform="translate(1179.479 496.605) rotate(15.79)" fill="#6c63ff"/><rect width="112.358" height="112.358" transform="translate(1380.272 553.385) rotate(15.79)" fill="#6c63ff"/><rect width="83.466" height="9.631" transform="translate(955.9 573.499) rotate(15.79)" fill="#6c63ff"/><rect width="83.466" height="9.631" transform="translate(1156.692 630.279) rotate(15.79)" fill="#6c63ff"/><rect width="83.466" height="9.631" transform="translate(1357.484 687.059) rotate(15.79)" fill="#6c63ff"/><ellipse cx="537.154" cy="19.86" rx="537.154" ry="19.86" transform="translate(10.592 730.076)" fill="#d0cde1"/><ellipse cx="417.997" cy="19.86" rx="417.997" ry="19.86" transform="translate(1084.007 955.151)" fill="#d0cde1"/><path d="M778.172,621H898.763v50.431H828.6v50.431h70.166v50.428h-120.6Zm144.712,0h120.594v43.853H973.315v8.77h70.163V774.485H922.887V728.434H993.05v-8.77H922.881V621Zm144.715,0h120.594v43.853h-70.163v8.77h70.163V774.485H1067.6V728.434h70.163v-8.77H1067.6V621Z" transform="translate(518.82 199.862)" fill="#3f3d56"/><path d="M220.926,499h49.748v49.15h45.509V499h49.751V647.839H316.186V598H270.677v49.84H220.929V499ZM431.35,548.358H387.561V499H524.924v49.359H481.107v99.48H431.36v-99.48h-.009ZM546.724,499H598.6L630.5,551.3,662.382,499h51.893V647.839H664.73V574.066L630.5,626.986h-.858L595.4,574.066v73.773H546.724Zm192.309,0H788.8v99.643h69.96v49.2H739.03V499Z" transform="translate(22.098 91.113)" fill="#3f3d56"/><path d="M83.958,366.091l-4.082,46.277,32.664-2.724V370.174Z" transform="translate(71.2 326.329)" fill="#ffb8b8"/><path d="M79.673,366.091l4.083,46.277-32.664-2.724V370.174Z" transform="translate(45.543 326.329)" fill="#ffb8b8"/><path d="M275.444,365.276s10.888,65.33,10.888,74.857-4.083,70.774-10.888,83.024S267.277,540.85,270,546.294s1.361,4.083,0,8.166-4.083,2.722,0,8.166a14.3,14.3,0,0,1,0,16.332c-2.722,4.083,5.444,114.328-5.444,122.494s-13.61,35.387-13.61,35.387l-35.387-4.083V702.814s-8.166-21.777-2.722-35.387S221,581.681,221,581.681s-1.361-6.805,0-10.888,0-6.805-2.722-8.166-4.083-6.805-4.083-6.805l-4.083-99.356L193.781,554.46s16.332,133.382,0,151.076v31.3H158.394l5.444-34.026s-10.888-31.3-5.444-38.109-16.332-115.689-13.61-119.772,1.361-5.444,0-8.166-5.444-5.444-4.083-8.166,0-8.166,0-8.166S114.841,392.5,127.09,380.247,275.444,365.276,275.444,365.276Z" transform="translate(-64.482 -28.087)" fill="#2f2e41"/><path d="M185.773,572.683s2.722-13.053,24.5-8.568c0,0,5.444,11.29,5.444,16.734s5.444,42.193,5.444,42.193,21.777,36.748-5.444,36.748-36.748-9.527-38.109-19.055,1.361-12.249-4.083-16.333-8.166-4.083-6.805-9.527S170.8,582.21,170.8,582.21s1.361-20.416,8.847-14.971l7.486,5.444" transform="translate(-26.531 148.319)" fill="#2f2e41"/><path d="M177.045,572.683s-2.722-13.053-24.5-8.568c0,0-5.444,11.29-5.444,16.734s-5.444,42.193-5.444,42.193S119.881,659.79,147.1,659.79s36.748-9.527,38.109-19.055-1.361-12.249,4.083-16.333,8.166-4.083,6.805-9.527-4.083-32.665-4.083-32.665-1.361-20.416-8.847-14.971l-7.486,5.444" transform="translate(-55.912 148.319)" fill="#2f2e41"/><circle cx="36.748" cy="36.748" r="36.748" transform="translate(123.855 13.26)" fill="#ffb8b8"/><path d="M169.9,216.319S154.924,274.843,152.2,276.2s62.608,6.805,62.608,6.805-16.333-50.359,0-58.525Z" transform="translate(-39.235 -160.866)" fill="#ffb8b8"/><path d="M177.614,235.178l0-.008L132.734,266.2,140.9,509.831s59.886-6.805,73.5-5.444,57.164-12.249,57.164-12.249L252.483,263.212a18.8,18.8,0,0,0-17.416-17.2l-8.174-.576s-8.166,20.218-32.734,9.787a28.666,28.666,0,0,1-16.545-20.049Z" transform="translate(-56.515 -144.061)" fill="#d0cde1"/><path d="M193.511,234l-55.493,26.443L127.13,416.963s-21.777,93.912-4.083,121.133,47.636,29.943,47.636,29.943,39.47-156.52,28.582-209.6S193.511,234,193.511,234Z" transform="translate(-71.327 -145.105)" fill="#575a89"/><path d="M102.368,358.8v20.416s-8.166,44.914,17.694,43.553,13.61-49,13.61-49L125.505,358.8Z" transform="translate(-84.674 -33.86)" fill="#ffb8b8"/><path d="M241.939,381.67l-2.722,23.138s13.61,46.275-12.249,47.636-7.089-47.352-7.089-47.352l8.45-26.144Z" transform="translate(15.298 -15.9)" fill="#ffb8b8"/><path d="M185.319,238.085h0a160.289,160.289,0,0,1,67.028,34.843l.235.205L233.528,373.851,230.806,410.6s50.359,179.658-8.166,153.8c0,0-50.359-156.52-43.553-228.655S185.319,238.085,185.319,238.085Z" transform="translate(-15.761 -141.463)" fill="#575a89"/><path d="M214.554,256.053c1.361-1.361,17.694,1.891,17.694,1.891s29.943,105.631,29.943,123.324,4.083,118.411,4.083,118.411L230.346,503.3l-29.08-139.937Z" transform="translate(4.574 -125.743)" fill="#575a89"/><path d="M168.654,247.981h-9.527s-27.221,10.888-28.582,23.138-38.109,136.1-38.109,136.1l9.527,62.608,35.387-5.444,6.805-69.413,35.387-76.218Z" transform="translate(-92.436 -132.642)" fill="#575a89"/><path d="M192.59,247.264,194,237.443c.328-2.289,1.668-5.3,3.9-4.677,1.894.53,6.022,2.151,6.713,1.662,2.588-1.833,6.5,1.372,9.225-.256,1.14-.682,1.884-2.144,3.209-2.242A3.656,3.656,0,0,1,219.4,233a16.033,16.033,0,0,0,6.1,3.313,6.559,6.559,0,0,0,6.42-1.75,3.409,3.409,0,0,1,1.135-1.088,2.547,2.547,0,0,1,1.632.075l6.953,1.893a26.717,26.717,0,0,0-3.575-22,44.243,44.243,0,0,0-10.127-9.918q-6.459-4.914-13.331-9.243a43.3,43.3,0,0,0-16.2-7.046c-5.863-.89-12.429.7-16.117,5.347a10.378,10.378,0,0,1-3.733-5.043,3.82,3.82,0,0,0,.246,5.857l-5.88-3.755c-1.653,1.736,1.577,4.883.168,6.822a3.593,3.593,0,0,1-1.583,1.034,26.955,26.955,0,0,0-8.622,5.427,32.173,32.173,0,0,0-6.79,12.509c-3.5,10.053-6.051,21.581-1.072,30.991.564,1.067,8.015,18.675,9.007,19.361,3.355,2.321,1.171-3.3,3.575,0,1.885,2.585,1.532-7.308,4.334-5.136a6.985,6.985,0,0,0,7.6.342c1.162-.806.787-5.279.161-9.387a4.84,4.84,0,0,1,5.888-5.445C189.082,246.98,192.53,247.681,192.59,247.264Z" transform="translate(-39.126 -187)" fill="#2f2e41"/><path d="M117.655,134.02l14.97,123.856H123.1Z" transform="translate(104.876 119.464)" opacity="0.2"/><path d="M37.748,108.834l-7.569,47.637,14.375-47.637H37.748Z" transform="translate(26.901 97.013)" opacity="0.2"/></svg>